<svg xmlns="http://www.w3.org/2000/svg" width="226" height="356"><path fill="none" pointer-events="none" d="M0 0h226v356H0z"/><switch transform="matrix(2.37116 0 0 2.37116 194.015 -3.996)"><g><path d="M11.053 76.928l-72.1-28.1 15.5-25z" class="st0" fill="none" stroke="#000" stroke-width="2" stroke-linecap="round" stroke-linejoin="round" stroke-miterlimit="10"/><path d="M-35.447 33.228l1.7-28.5-11.8 19.1zM-8.247 69.428l-7.4 50.6s13.6-22 13.8-22.2-6.4-28.4-6.4-28.4zM-8.247 69.428l-27.4 16.8-.9-27.8z" class="st0" fill="none" stroke="#000" stroke-width="2" stroke-linecap="round" stroke-linejoin="round" stroke-miterlimit="10"/><path d="M-8.247 69.428l-54.3 33.2 15.5 25.1zM-15.647 120.028l-7.9-27.6 15.3-23zM-15.647 120.028l-18.1 29.2-13.3-21.5z" class="st0" fill="none" stroke="#000" stroke-width="2" stroke-linecap="round" stroke-linejoin="round" stroke-miterlimit="10"/><path d="M-36.047 74.028l-42.4 2.9 15.9 25.7zM-36.047 74.028l.4 12.2-26.9 16.4zM-36.047 74.028l-25-25.2-17.4 28.1z" class="st0" fill="none" stroke="#000" stroke-width="2" stroke-linecap="round" stroke-linejoin="round" stroke-miterlimit="10"/><path d="M-36.047 74.028l-25-25.2 24.5 9.6zM11.053 76.928l-12.9 20.9-6.4-28.4zM-15.647 120.028l-7.9-27.6-23.5 35.3zM11.053 76.928l-44.8-72.2 18.1 47.2z" class="st0" fill="none" stroke="#000" stroke-width="2" stroke-linecap="round" stroke-linejoin="round" stroke-miterlimit="10"/><path d="M-15.647 51.928l-18.1-47.2-1.7 28.5z" class="st0" fill="none" stroke="#000" stroke-width="2" stroke-linecap="round" stroke-linejoin="round" stroke-miterlimit="10"/></g></switch></svg>