<svg xmlns="http://www.w3.org/2000/svg" width="520" height="300"><path fill="none" pointer-events="none" d="M0 0h520v300H0z"/><switch transform="matrix(1.92322 0 0 1.92322 -6.534 -78.958)"><g><path class="st1" d="M138.782 134.708l-22.2 35.7 19.3-40.2z" fill="none"/><path class="st2" d="M138.682 134.808l-13.1 45.3 3.2-29.3z" fill="#007c3b"/><path class="st3" d="M116.582 170.408l9 9.7-5.5-15.2z" fill="#3c3"/><path class="st3" d="M123.582 174.508l-3.5-9.6.4 9.7 5.1 5.5-2-5.6" fill="#3c3"/><path class="st4" d="M138.682 134.708l.1 37.1-3.6-24.8z" fill="#093"/><path class="st2" d="M135.182 147.008l3.6 24.8-6.7-4.9z" fill="#007c3b"/><path class="st5" d="M138.782 171.808v23.1l-5.7-6.7z" fill="#024f27"/><path class="st6" d="M133.082 188.208l5.7-16.4-6.7-4.9z" fill="#063"/><path class="st2" d="M133.082 188.208l-3.7-4.1 2.7-17.2z" fill="#007c3b"/><path class="st6" d="M116.582 170.408l19.3-40.2 2.8 4.5z" fill="#063"/><path class="st6" d="M138.682 134.708l22.2 35.7-19.3-40.2z" fill="#063"/><path class="st4" d="M138.782 134.808l13.1 45.3-3.2-29.3z" fill="#093"/><path class="st6" d="M160.882 170.408l-9 9.7 5.5-15.2z" fill="#063"/><path class="st5" d="M157.382 164.908l-.4 9.7-5.1 5.5z" fill="#024f27"/><path class="st3" d="M138.682 134.708v37.1l3.6-24.8z" fill="#3c3"/><path class="st6" d="M142.282 147.008l-3.6 24.8 6.7-4.9zm-3.6 24.8v23.1l5.6-6.7z" fill="#063"/><path class="st2" d="M144.282 188.208l-5.6-16.4 6.7-4.9z" fill="#007c3b"/><path class="st6" d="M144.282 188.208l3.8-4.1-2.7-17.2zm16.6-17.8l-19.3-40.2-2.9 4.5z" fill="#063"/><path class="st5" d="M103.882 125.608l2.3-22.7 4.2 16.6z" fill="#024f27"/><path class="st1" d="M106.182 102.908l40.4-34-24.3 39.3-11.9 11.3z" fill="none"/><path class="st7" d="M106.182 102.908l-17.9 14.4 16.9-4.5z" fill="#3f9"/><path class="st2" d="M88.282 117.308l15.6 8.3 1.3-12.8z" fill="#007c3b"/><path class="st6" d="M108.282 111.308l-2.1-8.4 40.4-34z" fill="#063"/><path class="st4" d="M125.682 92.008l-19.5 10.9 40.4-34z" fill="#093"/><path class="st2" d="M125.682 92.008l-3.4 16.2 24.3-39.3zm-17.4 19.3l14-3.1-11.9 11.3z" fill="#007c3b"/><path class="st7" d="M108.282 111.308l14-3.1 3.4-16.1z" fill="#3f9"/><path class="st8" d="M125.682 92.108l13.1-10.5-16.5 26.6z" fill="#3c6"/><path fill="#871719" d="M115.282 95.308l-56.6 6.3 24.8 13.2z"/><path class="st7" d="M83.482 114.808l5.7-16.6 15.5 3.6z" fill="#3f9"/><path class="st4" d="M89.182 98.208l15.5 3.6 10.6-6.5z" fill="#093"/><path class="st8" d="M89.182 98.208l-5.7 16.6-11.7-6.2z" fill="#3c6"/><path class="st7" d="M89.182 98.208l-17.4 10.4-13.1-7z" fill="#3f9"/><path class="st10" d="M58.682 101.608l30.5-3.4 14.7-9.7z" fill="#3f6"/><path class="st7" d="M103.882 88.508l-.7 8.2-14 1.5z" fill="#3f9"/><path class="st2" d="M103.882 88.508l-.7 8.2 21.7-21.1z" fill="#007c3b"/><path class="st4" d="M103.182 96.708l21.7-21.1 1.8 10.1z" fill="#093"/><path class="st3" d="M103.182 96.708l12.1-1.4 11.4-9.6z" fill="#3c3"/><path class="st2" d="M124.882 75.608l1.8 10.1 2.8-21.8z" fill="#007c3b"/><path class="st1" d="M129.482 63.908l17.1 5-19.9 16.8z" fill="none"/><path class="st11" d="M126.682 85.708l14.3-18.4 5.6 1.6z" fill="#6f9"/><path class="st3" d="M134.482 65.408l-7.8 20.3 2.8-21.8z" fill="#3c3"/><path class="st2" d="M129.482 63.908l5.5-12.1 3.9 5.7z" fill="#007c3b"/><path class="st7" d="M129.482 63.908l17.1 5-12.2-8.3z" fill="#3f9"/><path class="st4" d="M134.382 60.608l4.5-3.1 7.7 11.4z" fill="#093"/><path class="st8" d="M103.882 88.508l-21.3-15.1h13.9zm0 0l15.8-15.1 5.2 2.2z" fill="#3c6"/><path class="st3" d="M108.882 83.708l-12.4-10.3h23.2z" fill="#3c3"/><path class="st7" d="M108.882 83.708l-5 4.8-7.4-15.1zm-5 4.8l-54.1 8.1 48.3-12.2z" fill="#3f9"/><path class="st11" d="M49.782 96.608l32.8-23.2 15.5 11z" fill="#6f9"/><path class="st8" d="M49.382 96.708l-17.3-9.1 30.3.1z" fill="#3c6"/><path class="st3" d="M62.382 87.708l20.2-14.3h-12.5z" fill="#3c3"/><path class="st8" d="M62.382 87.708l-31.8-14.2 39.5-.1z" fill="#3c6"/><path class="st11" d="M62.382 87.708l-56.9-14.2h25.1z" fill="#6f9"/><path class="st7" d="M5.482 73.508l26.6 14.1 30.3.1z" fill="#3f9"/><path class="st5" d="M173.282 125.408l-2.3-22.7-4.1 16.6z" fill="#024f27"/><path class="st6" d="M170.982 102.708l17.9 14.4-16.9-4.5z" fill="#063"/><path class="st4" d="M188.882 117.108l-15.6 8.3-1.3-12.8z" fill="#093"/><path class="st3" d="M151.482 91.908l19.5 10.8-29.8-25z" fill="#3c3"/><path class="st6" d="M168.882 111.108l-14-3.1 12 11.3z" fill="#063"/><path class="st2" d="M168.882 111.108l-14-3.1-3.4-16.1z" fill="#007c3b"/><path class="st10" d="M161.882 95.108l56.6 6.4-24.8 13.1z" fill="#3f6"/><path class="st2" d="M193.682 114.608l-5.7-16.5-15.5 3.5z" fill="#007c3b"/><path class="st3" d="M187.982 98.108l-15.5 3.5-10.6-6.5z" fill="#3c3"/><path class="st7" d="M187.982 98.108l5.7 16.5 11.8-6.2z" fill="#3f9"/><path class="st2" d="M187.982 98.108l17.5 10.3 13-6.9z" fill="#007c3b"/><path class="st10" d="M218.482 101.508l-30.5-3.4-14.7-9.8z" fill="#3f6"/><path class="st7" d="M173.282 88.308l.7 8.2 14 1.6z" fill="#3f9"/><path class="st6" d="M173.282 88.308l.7 8.2-21.7-21.1z" fill="#063"/><path class="st3" d="M173.982 96.508l-21.7-21.1-1.8 10.1z" fill="#3c3"/><path class="st8" d="M173.982 96.508l-12.1-1.4-11.4-9.6zm-.7-8.2l21.3-15.1h-13.9zm0 0l-15.8-15.1-5.2 2.2z" fill="#3c6"/><path class="st3" d="M168.382 83.508l12.3-10.3h-23.2z" fill="#3c3"/><path class="st11" d="M168.382 83.508l4.9 4.8 7.4-15.1z" fill="#6f9"/><path class="st3" d="M173.282 88.308l54.1 8.1-48.3-12.1z" fill="#3c3"/><path class="st7" d="M227.382 96.408l-32.8-23.2-15.5 11.1z" fill="#3f9"/><path class="st8" d="M227.782 96.608l17.3-9.2-30.3.1z" fill="#3c6"/><path class="st11" d="M214.782 87.508l-20.2-14.3 12.5.1z" fill="#6f9"/><path class="st8" d="M214.782 87.508l31.8-14.2h-39.5z" fill="#3c6"/><path class="st7" d="M214.782 87.508l56.9-14.2h-25.1z" fill="#3f9"/><path class="st11" d="M271.682 73.308l-26.6 14.1-30.3.1z" fill="#6f9"/><path class="st8" d="M138.782 81.608l12.7 10.3-10.3-14.2z" fill="#3c6"/><path class="st6" d="M138.782 81.608l16.4 26.6-3.7-16.3z" fill="#063"/><path class="st11" d="M146.582 68.908l3.9 16.6 1.8-10.1z" fill="#6f9"/><path class="st7" d="M146.582 68.908l3.9 16.6-9.3-7.8z" fill="#3f9"/><path class="st11" d="M134.982 51.808l8.2-8.7-23.7 11.8z" fill="#6f9"/><path class="st8" d="M134.982 51.808l-13.6 12.7-1.9-9.6z" fill="#3c6"/><path class="st3" d="M121.382 64.508l8.1-.6 5.5-12.1z" fill="#3c3"/><path class="st7" d="M116.282 68.908l3.2-14 1.9 9.6z" fill="#3f9"/><path class="st6" d="M116.282 68.908l-1.6-5.8 2.3 2.7z" fill="#063"/><path class="st4" d="M116.982 65.808l-2.3-2.7 4.8-8.2zm3.1 99.1l5.5 15.2 3.2-29.3z" fill="#093"/><path class="st3" d="M157.382 164.908l-5.5 15.2-3.2-29.3z" fill="#3c3"/><path class="st8" d="M134.482 65.408l6.5 1.9-14.3 18.4z" fill="#3c6"/><path class="st4" d="M168.882 111.108l2.1-8.4-19.5-10.8z" fill="#093"/><path class="st10" d="M138.682 81.608v19.2l-16.4 7.4z" fill="#3f6"/><path class="st4" d="M138.782 81.608v19.2l16.4 7.4z" fill="#093"/><path class="st10" d="M138.682 134.708v-19.2l-16.4-7.3z" fill="#3f6"/><path class="st4" d="M138.782 134.708v-19.2l16.4-7.3z" fill="#093"/><path class="st6" d="M138.782 115.508v-7.3h16.4z" fill="#063"/><path class="st4" d="M138.782 115.508v-7.3h-16.5z" fill="#093"/><path class="st8" d="M138.782 100.808v7.4h16.4z" fill="#3c6"/><path class="st11" d="M138.782 100.808v7.4h-16.5z" fill="#6f9"/></g></switch></svg>