<svg viewBox="0 0 103 119" version="1.1" xmlns="http://www.w3.org/2000/svg" xmlns:xlink="http://www.w3.org/1999/xlink" width="100%" height="100%">
    <defs>
        <pattern id="ashano" patternUnits="userSpaceOnUse" width="119" height="103" patternTransform="rotate(90)">
            <g stroke="rgb(255,255,255)" fill="none" stroke-width="1.4">
            <polygon points="89.3,0 89.3,34.4 119,51.6 89.3,68.7 89.3,103.1 59.5,85.9 29.8,103.1 29.8,68.7 0,51.5 29.8,34.4 29.8,0 59.5,17.2"/>
            <line x1="59.5" y1="17.2" x2="59.5" y2="85.9"/>
            <line x1="29.8" y1="103.1" x2="89.3" y2="0"/>
            <line x1="29.8" y1="0" x2="89.3" y2="103.1"/>
            <line x1="0" y1="51.5" x2="119" y2="51.5"/>
            <line x1="29.8" y1="68.7" x2="89.3" y2="34.4"/>
            <line x1="89.3" y1="68.7" x2="29.8" y2="34.4"/>
            <line x1="29.8" y1="0" x2="89.3" y2="0"/>
            <line x1="89.3" y1="0" x2="119" y2="51.6"/>
            <line x1="119" y1="51.6" x2="89.3" y2="103.1"/>
            <line x1="89.3" y1="103.1" x2="29.8" y2="103.1"/>
            <polyline points="89.3,103.1 119,85.9 119,51.5"/>
            <line x1="89.3" y1="103.1" x2="119" y2="103.1"/>
            <polyline points="119,51.5 119,17.2 89.3,0"/>
            <line x1="89.3" y1="0" x2="119" y2="0"/>
            <line x1="119" y1="51.5" x2="89.3" y2="0"/>
            <polyline points="29.8,0.1 0,17.2 0,51.6"/>
            <line x1="0" y1="0" x2="29.8" y2="0.1"/>
            <line x1="29.8" y1="0.1" x2="0" y2="51.6"/>
            <polyline points="0.1,51.5 0.1,85.9 29.8,103.1" />
            <line x1="0" y1="103" x2="29.8" y2="103.1"/>
            <line x1="0.1" y1="51.5" x2="29.8" y2="103.1"/>
            </g>
        </pattern>
    </defs>
    <rect width="100%" height="100%" fill="url(#ashano)" />
</svg>