<?xml version="1.0" encoding="UTF-8" standalone="no"?>
<!-- Created with Inkscape (http://www.inkscape.org/) -->
<svg
   xmlns:dc="http://purl.org/dc/elements/1.1/"
   xmlns:cc="http://web.resource.org/cc/"
   xmlns:rdf="http://www.w3.org/1999/02/22-rdf-syntax-ns#"
   xmlns:svg="http://www.w3.org/2000/svg"
   xmlns="http://www.w3.org/2000/svg"
   xmlns:sodipodi="http://sodipodi.sourceforge.net/DTD/sodipodi-0.dtd"
   xmlns:inkscape="http://www.inkscape.org/namespaces/inkscape"
   id="svg1920"
   sodipodi:version="0.32"
   inkscape:version="0.45"
   width="473.23999"
   height="473.23901"
   version="1.0"
   sodipodi:docbase="D:\tmp"
   sodipodi:docname="Pakua_with_name.svg"
   inkscape:output_extension="org.inkscape.output.svg.inkscape"
   sodipodi:modified="true">
  <metadata
     id="metadata1925">
    <rdf:RDF>
      <cc:Work
         rdf:about="">
        <dc:format>image/svg+xml</dc:format>
        <dc:type
           rdf:resource="http://purl.org/dc/dcmitype/StillImage" />
      </cc:Work>
    </rdf:RDF>
  </metadata>
  <defs
     id="defs1923" />
  <sodipodi:namedview
     inkscape:window-height="746"
     inkscape:window-width="1024"
     inkscape:pageshadow="2"
     inkscape:pageopacity="0.0"
     guidetolerance="10.0"
     gridtolerance="10.0"
     objecttolerance="10.0"
     borderopacity="1.0"
     bordercolor="#666666"
     pagecolor="#ffffff"
     id="base"
     showguides="true"
     inkscape:guide-bbox="true"
     inkscape:zoom="0.41090096"
     inkscape:cx="236.62"
     inkscape:cy="236.61951"
     inkscape:window-x="0"
     inkscape:window-y="0"
     inkscape:current-layer="svg1920"
     width="473.24px"
     height="473.239px" />
  <g
     id="g6433"
     transform="translate(-36.707252,-36.468428)">
    <g
       transform="translate(-5.730142e-5,3.040446e-5)"
       id="g34767">
      <g
         id="g34571">
        <g
           id="g34004">
          <path
             style="fill:#000000;fill-opacity:1;fill-rule:nonzero;stroke:#000000;stroke-width:2;stroke-linecap:butt;stroke-linejoin:miter;stroke-miterlimit:4;stroke-dasharray:none;stroke-opacity:1"
             d="M 195.38414,61.18398 L 349.78364,61.18398 L 341.1927,81.14326 L 203.6153,81.14326 L 195.38414,61.18398 z "
             id="rect1929"
             sodipodi:nodetypes="ccccc" />
          <g
             id="g13458"
             transform="matrix(2,0,0,2,414.9798,-66.3153)">
            <path
               sodipodi:nodetypes="ccccc"
               id="path7251"
               d="M -102.64956,80.813527 L -75.1344,80.771657 L -75.1586,90.944457 L -98.23301,90.944457 L -102.64956,80.813527 z "
               style="fill:#000000;fill-opacity:1;fill-rule:nonzero;stroke:#000000;stroke-width:1;stroke-linecap:butt;stroke-linejoin:miter;stroke-miterlimit:4;stroke-dasharray:none;stroke-opacity:1" />
            <path
               sodipodi:nodetypes="ccccc"
               id="path10798"
               d="M -39.74639,80.817927 L -67.13655,80.776057 L -67.11235,90.948857 L -44.03794,90.948857 L -39.74639,80.817927 z "
               style="fill:#000000;fill-opacity:1;fill-rule:nonzero;stroke:#000000;stroke-width:1;stroke-linecap:butt;stroke-linejoin:miter;stroke-miterlimit:4;stroke-dasharray:none;stroke-opacity:1" />
          </g>
          <path
             style="fill:#000000;fill-opacity:1;fill-rule:nonzero;stroke:#000000;stroke-width:2;stroke-linecap:butt;stroke-linejoin:miter;stroke-miterlimit:4;stroke-dasharray:none;stroke-opacity:1"
             d="M 225.16132,131.23192 L 320.00646,131.23192 L 311.09072,151.7587 L 233.60832,151.7587 L 225.16132,131.23192 z "
             id="path12570"
             sodipodi:nodetypes="ccccc" />
        </g>
        <g
           transform="matrix(2,0,0,2,590.0229,-592.3641)"
           id="g25248">
          <path
             style="fill:#000000;fill-opacity:1;fill-rule:nonzero;stroke:#000000;stroke-width:1;stroke-linecap:butt;stroke-linejoin:miter;stroke-miterlimit:4;stroke-dasharray:none;stroke-opacity:1"
             d="M -261.04407,384.78595 L -206.45561,330.19748 L -202.43628,340.2915 L -251.07725,388.93246 L -261.04407,384.78595 z "
             id="path19680"
             sodipodi:nodetypes="ccccc" />
          <g
             id="g19690"
             transform="matrix(0.707107,-0.707107,0.707107,0.707107,-497.1187,439.898)">
            <g
               id="g19692"
               transform="translate(-11.125,0.125)">
              <path
                 style="fill:#000000;fill-opacity:1;fill-rule:nonzero;stroke:#000000;stroke-width:1;stroke-linecap:butt;stroke-linejoin:miter;stroke-miterlimit:4;stroke-dasharray:none;stroke-opacity:1"
                 d="M 232.19323,162.71031 L 251.55677,162.71031 L 251.53939,173.28968 L 236.62388,173.28968 L 232.19323,162.71031 z "
                 id="path19694"
                 sodipodi:nodetypes="ccccc" />
              <path
                 style="fill:#000000;fill-opacity:1;fill-rule:nonzero;stroke:#000000;stroke-width:1;stroke-linecap:butt;stroke-linejoin:miter;stroke-miterlimit:4;stroke-dasharray:none;stroke-opacity:1"
                 d="M 279.05677,162.83531 L 259.69323,162.83531 L 259.71061,173.41468 L 274.62612,173.41468 L 279.05677,162.83531 z "
                 id="path19696"
                 sodipodi:nodetypes="ccccc" />
            </g>
          </g>
          <path
             style="fill:#000000;fill-opacity:1;fill-rule:nonzero;stroke:#000000;stroke-width:1;stroke-linecap:butt;stroke-linejoin:miter;stroke-miterlimit:4;stroke-dasharray:none;stroke-opacity:1"
             d="M -243.57752,391.54037 L -199.6128,347.75242 L -195.53507,357.75378 L -233.50121,395.71992 L -243.57752,391.54037 z "
             id="path19698"
             sodipodi:nodetypes="ccccc" />
        </g>
        <g
           transform="matrix(-2,0,0,2,-43.3691,-592.3641)"
           id="g25220">
          <g
             id="g19700"
             transform="matrix(0,1,-1,0,111.2199,177.6819)">
            <path
               sodipodi:nodetypes="ccccc"
               id="path19702"
               d="M 216.82691,162.80702 L 251.52666,162.80702 L 251.35619,172.78666 L 220.94249,172.78666 L 216.82691,162.80702 z "
               style="fill:#000000;fill-opacity:1;fill-rule:nonzero;stroke:#000000;stroke-width:1;stroke-linecap:butt;stroke-linejoin:miter;stroke-miterlimit:4;stroke-dasharray:none;stroke-opacity:1" />
            <path
               sodipodi:nodetypes="ccccc"
               id="path19704"
               d="M 294.34988,162.63518 L 259.65013,162.63518 L 259.8206,172.61482 L 290.2343,172.61482 L 294.34988,162.63518 z "
               style="fill:#000000;fill-opacity:1;fill-rule:nonzero;stroke:#000000;stroke-width:1;stroke-linecap:butt;stroke-linejoin:miter;stroke-miterlimit:4;stroke-dasharray:none;stroke-opacity:1" />
          </g>
          <g
             id="g19708"
             transform="matrix(0,1,-1,0,11.871,504.4683)">
            <path
               sodipodi:nodetypes="ccccc"
               id="path19710"
               d="M -102.64956,80.813527 L -75.1344,80.771657 L -75.1586,90.944457 L -98.23301,90.944457 L -102.64956,80.813527 z "
               style="fill:#000000;fill-opacity:1;fill-rule:nonzero;stroke:#000000;stroke-width:1;stroke-linecap:butt;stroke-linejoin:miter;stroke-miterlimit:4;stroke-dasharray:none;stroke-opacity:1" />
            <path
               sodipodi:nodetypes="ccccc"
               id="path19712"
               d="M -39.74639,80.817927 L -67.13655,80.776057 L -67.11235,90.948857 L -44.03794,90.948857 L -39.74639,80.817927 z "
               style="fill:#000000;fill-opacity:1;fill-rule:nonzero;stroke:#000000;stroke-width:1;stroke-linecap:butt;stroke-linejoin:miter;stroke-miterlimit:4;stroke-dasharray:none;stroke-opacity:1" />
          </g>
          <path
             style="fill:#000000;fill-opacity:1;fill-rule:nonzero;stroke:#000000;stroke-width:1;stroke-linecap:butt;stroke-linejoin:miter;stroke-miterlimit:4;stroke-dasharray:none;stroke-opacity:1"
             d="M -86.90256,409.55903 L -86.90256,456.98159 L -97.16595,452.52372 L -97.16595,413.78253 L -86.90256,409.55903 z "
             id="path19714"
             sodipodi:nodetypes="ccccc" />
        </g>
        <g
           transform="matrix(2,0,0,2,590.0229,-592.3641)"
           id="g25195">
          <path
             style="fill:#000000;fill-opacity:1;fill-rule:nonzero;stroke:#000000;stroke-width:1;stroke-linecap:butt;stroke-linejoin:miter;stroke-miterlimit:4;stroke-dasharray:none;stroke-opacity:1"
             d="M -206.06096,533.89948 L -260.64942,479.31101 L -250.55539,475.29171 L -201.91443,523.93265 L -206.06096,533.89948 z "
             id="path19716"
             sodipodi:nodetypes="ccccc" />
          <g
             id="g19718"
             transform="matrix(-0.707107,-0.707107,0.707107,-0.707107,-328.7777,501.3385)">
            <path
               sodipodi:nodetypes="ccccc"
               id="path19720"
               d="M -102.64956,80.813527 L -75.1344,80.771657 L -75.1586,90.944457 L -98.23301,90.944457 L -102.64956,80.813527 z "
               style="fill:#000000;fill-opacity:1;fill-rule:nonzero;stroke:#000000;stroke-width:1;stroke-linecap:butt;stroke-linejoin:miter;stroke-miterlimit:4;stroke-dasharray:none;stroke-opacity:1" />
            <path
               sodipodi:nodetypes="ccccc"
               id="path19722"
               d="M -39.74639,80.817927 L -67.13655,80.776057 L -67.11235,90.948857 L -44.03794,90.948857 L -39.74639,80.817927 z "
               style="fill:#000000;fill-opacity:1;fill-rule:nonzero;stroke:#000000;stroke-width:1;stroke-linecap:butt;stroke-linejoin:miter;stroke-miterlimit:4;stroke-dasharray:none;stroke-opacity:1" />
          </g>
          <g
             id="g19731"
             transform="matrix(-0.707107,-0.707107,0.707107,-0.707107,-151.1326,770.1578)">
            <g
               id="g19733"
               transform="translate(-11.125,0.125)">
              <path
                 style="fill:#000000;fill-opacity:1;fill-rule:nonzero;stroke:#000000;stroke-width:1;stroke-linecap:butt;stroke-linejoin:miter;stroke-miterlimit:4;stroke-dasharray:none;stroke-opacity:1"
                 d="M 232.19323,162.71031 L 251.55677,162.71031 L 251.53939,173.28968 L 236.62388,173.28968 L 232.19323,162.71031 z "
                 id="path19735"
                 sodipodi:nodetypes="ccccc" />
              <path
                 style="fill:#000000;fill-opacity:1;fill-rule:nonzero;stroke:#000000;stroke-width:1;stroke-linecap:butt;stroke-linejoin:miter;stroke-miterlimit:4;stroke-dasharray:none;stroke-opacity:1"
                 d="M 279.05677,162.83531 L 259.69323,162.83531 L 259.71061,173.41468 L 274.62612,173.41468 L 279.05677,162.83531 z "
                 id="path19737"
                 sodipodi:nodetypes="ccccc" />
            </g>
          </g>
        </g>
        <g
           transform="matrix(2,0,0,2,590.0229,-592.3641)"
           id="g25205">
          <g
             id="g19753"
             transform="matrix(1,0,0,-1,-403.2195,666.4342)">
            <g
               id="g19755"
               transform="translate(-11.125,0.125)">
              <path
                 style="fill:#000000;fill-opacity:1;fill-rule:nonzero;stroke:#000000;stroke-width:1;stroke-linecap:butt;stroke-linejoin:miter;stroke-miterlimit:4;stroke-dasharray:none;stroke-opacity:1"
                 d="M 232.19323,162.71031 L 251.55677,162.71031 L 251.53939,173.28968 L 236.62388,173.28968 L 232.19323,162.71031 z "
                 id="path19757"
                 sodipodi:nodetypes="ccccc" />
              <path
                 style="fill:#000000;fill-opacity:1;fill-rule:nonzero;stroke:#000000;stroke-width:1;stroke-linecap:butt;stroke-linejoin:miter;stroke-miterlimit:4;stroke-dasharray:none;stroke-opacity:1"
                 d="M 279.05677,162.83531 L 259.69323,162.83531 L 259.71061,173.41468 L 274.62612,173.41468 L 279.05677,162.83531 z "
                 id="path19759"
                 sodipodi:nodetypes="ccccc" />
            </g>
          </g>
          <g
             id="g19761"
             transform="matrix(1,0,0,-1,-414.3079,701.313)">
            <path
               sodipodi:nodetypes="ccccc"
               id="path19763"
               d="M 216.82691,162.80702 L 251.52666,162.80702 L 251.35619,172.78666 L 220.94249,172.78666 L 216.82691,162.80702 z "
               style="fill:#000000;fill-opacity:1;fill-rule:nonzero;stroke:#000000;stroke-width:1;stroke-linecap:butt;stroke-linejoin:miter;stroke-miterlimit:4;stroke-dasharray:none;stroke-opacity:1" />
            <path
               sodipodi:nodetypes="ccccc"
               id="path19765"
               d="M 294.34988,162.63518 L 259.65013,162.63518 L 259.8206,172.61482 L 290.2343,172.61482 L 294.34988,162.63518 z "
               style="fill:#000000;fill-opacity:1;fill-rule:nonzero;stroke:#000000;stroke-width:1;stroke-linecap:butt;stroke-linejoin:miter;stroke-miterlimit:4;stroke-dasharray:none;stroke-opacity:1" />
          </g>
          <path
             style="fill:#000000;fill-opacity:1;fill-rule:nonzero;stroke:#000000;stroke-width:1;stroke-linecap:butt;stroke-linejoin:miter;stroke-miterlimit:4;stroke-dasharray:none;stroke-opacity:1"
             d="M -189.74477,521.31812 L -127.69424,521.19312 L -131.88289,511.2377 L -185.57513,511.2377 L -189.74477,521.31812 z "
             id="path19767"
             sodipodi:nodetypes="ccccc" />
        </g>
        <g
           transform="matrix(2,0,0,2,590.0229,-592.3641)"
           id="g25215">
          <path
             style="fill:#000000;fill-opacity:1;fill-rule:nonzero;stroke:#000000;stroke-width:1;stroke-linecap:butt;stroke-linejoin:miter;stroke-miterlimit:4;stroke-dasharray:none;stroke-opacity:1"
             d="M -56.150316,480.50277 L -110.73878,535.09124 L -114.7581,524.99721 L -66.117135,476.35625 L -56.150316,480.50277 z "
             id="path19781"
             sodipodi:nodetypes="ccccc" />
          <path
             style="fill:#000000;fill-opacity:1;fill-rule:nonzero;stroke:#000000;stroke-width:1;stroke-linecap:butt;stroke-linejoin:miter;stroke-miterlimit:4;stroke-dasharray:none;stroke-opacity:1"
             d="M -91.443826,466.26491 L -124.97665,499.79773 L -129.08177,489.38823 L -101.68761,461.99407 L -91.443826,466.26491 z "
             id="path19783"
             sodipodi:nodetypes="ccccc" />
          <path
             style="fill:#000000;fill-opacity:1;fill-rule:nonzero;stroke:#000000;stroke-width:1;stroke-linecap:butt;stroke-linejoin:miter;stroke-miterlimit:4;stroke-dasharray:none;stroke-opacity:1"
             d="M -73.703903,473.6613 L -117.66863,517.44926 L -121.74636,507.4479 L -83.78021,469.48174 L -73.703903,473.6613 z "
             id="path19785"
             sodipodi:nodetypes="ccccc" />
        </g>
        <g
           transform="matrix(-2,0,0,2,-43.3691,-592.3641)"
           id="g25188">
          <path
             style="fill:#000000;fill-opacity:1;fill-rule:nonzero;stroke:#000000;stroke-width:1;stroke-linecap:butt;stroke-linejoin:miter;stroke-miterlimit:4;stroke-dasharray:none;stroke-opacity:1"
             d="M -230.14704,456.98159 L -230.14704,409.55902 L -219.88365,414.01689 L -219.88365,452.75809 L -230.14704,456.98159 z "
             id="path19808"
             sodipodi:nodetypes="ccccc" />
          <g
             id="g19810"
             transform="matrix(0,-1,1,0,-427.9159,688.8587)">
            <path
               sodipodi:nodetypes="ccccc"
               id="path19812"
               d="M 216.82691,162.80702 L 251.52666,162.80702 L 251.35619,172.78666 L 220.94249,172.78666 L 216.82691,162.80702 z "
               style="fill:#000000;fill-opacity:1;fill-rule:nonzero;stroke:#000000;stroke-width:1;stroke-linecap:butt;stroke-linejoin:miter;stroke-miterlimit:4;stroke-dasharray:none;stroke-opacity:1" />
            <path
               sodipodi:nodetypes="ccccc"
               id="path19814"
               d="M 294.34988,162.63518 L 259.65013,162.63518 L 259.8206,172.61482 L 290.2343,172.61482 L 294.34988,162.63518 z "
               style="fill:#000000;fill-opacity:1;fill-rule:nonzero;stroke:#000000;stroke-width:1;stroke-linecap:butt;stroke-linejoin:miter;stroke-miterlimit:4;stroke-dasharray:none;stroke-opacity:1" />
          </g>
          <path
             style="fill:#000000;fill-opacity:1;fill-rule:nonzero;stroke:#000000;stroke-width:1;stroke-linecap:butt;stroke-linejoin:miter;stroke-miterlimit:4;stroke-dasharray:none;stroke-opacity:1"
             d="M -247.92109,464.29558 L -247.79609,402.24505 L -237.84067,406.4337 L -237.84067,460.12594 L -247.92109,464.29558 z "
             id="path19816"
             sodipodi:nodetypes="ccccc" />
        </g>
        <g
           transform="matrix(2,0,0,2,590.0229,-592.3641)"
           id="g25229">
          <g
             id="g19842"
             transform="matrix(0.707107,0.707107,-0.707107,0.707107,11.4016,362.5375)">
            <path
               sodipodi:nodetypes="ccccc"
               id="path19844"
               d="M -102.64956,80.813527 L -75.1344,80.771657 L -75.1586,90.944457 L -98.23301,90.944457 L -102.64956,80.813527 z "
               style="fill:#000000;fill-opacity:1;fill-rule:nonzero;stroke:#000000;stroke-width:1;stroke-linecap:butt;stroke-linejoin:miter;stroke-miterlimit:4;stroke-dasharray:none;stroke-opacity:1" />
            <path
               sodipodi:nodetypes="ccccc"
               id="path19846"
               d="M -39.74639,80.817927 L -67.13655,80.776057 L -67.11235,90.948857 L -44.03794,90.948857 L -39.74639,80.817927 z "
               style="fill:#000000;fill-opacity:1;fill-rule:nonzero;stroke:#000000;stroke-width:1;stroke-linecap:butt;stroke-linejoin:miter;stroke-miterlimit:4;stroke-dasharray:none;stroke-opacity:1" />
          </g>
          <g
             id="g19848"
             transform="matrix(0.707107,0.707107,-0.707107,0.707107,-166.2433,93.71809)">
            <g
               id="g19850"
               transform="translate(-11.125,0.125)">
              <path
                 style="fill:#000000;fill-opacity:1;fill-rule:nonzero;stroke:#000000;stroke-width:1;stroke-linecap:butt;stroke-linejoin:miter;stroke-miterlimit:4;stroke-dasharray:none;stroke-opacity:1"
                 d="M 232.19323,162.71031 L 251.55677,162.71031 L 251.53939,173.28968 L 236.62388,173.28968 L 232.19323,162.71031 z "
                 id="path19852"
                 sodipodi:nodetypes="ccccc" />
              <path
                 style="fill:#000000;fill-opacity:1;fill-rule:nonzero;stroke:#000000;stroke-width:1;stroke-linecap:butt;stroke-linejoin:miter;stroke-miterlimit:4;stroke-dasharray:none;stroke-opacity:1"
                 d="M 279.05677,162.83531 L 259.69323,162.83531 L 259.71061,173.41468 L 274.62612,173.41468 L 279.05677,162.83531 z "
                 id="path19854"
                 sodipodi:nodetypes="ccccc" />
            </g>
          </g>
          <g
             id="g19856"
             transform="matrix(0.707107,0.707107,-0.707107,0.707107,-149.671,61.46441)">
            <path
               sodipodi:nodetypes="ccccc"
               id="path19858"
               d="M 216.82691,162.80702 L 251.52666,162.80702 L 251.35619,172.78666 L 220.94249,172.78666 L 216.82691,162.80702 z "
               style="fill:#000000;fill-opacity:1;fill-rule:nonzero;stroke:#000000;stroke-width:1;stroke-linecap:butt;stroke-linejoin:miter;stroke-miterlimit:4;stroke-dasharray:none;stroke-opacity:1" />
            <path
               sodipodi:nodetypes="ccccc"
               id="path19860"
               d="M 294.34988,162.63518 L 259.65013,162.63518 L 259.8206,172.61482 L 290.2343,172.61482 L 294.34988,162.63518 z "
               style="fill:#000000;fill-opacity:1;fill-rule:nonzero;stroke:#000000;stroke-width:1;stroke-linecap:butt;stroke-linejoin:miter;stroke-miterlimit:4;stroke-dasharray:none;stroke-opacity:1" />
          </g>
        </g>
      </g>
      <g
         id="g34073">
        <path
           id="path19862"
           d="M 255.83676,355.11082 C 207.0201,346.32872 175.82741,289.10744 194.91206,243.31325 C 211.02798,196.53952 272.03597,174.35074 314.413,199.95352 C 358.18974,222.82639 371.15213,286.27316 339.67716,324.40265 C 320.54188,349.55382 286.71546,362.06695 255.83676,355.11082 z "
           style="fill:#ffffff;fill-opacity:1;fill-rule:evenodd;stroke:#000000;stroke-width:8.3820734;stroke-linecap:butt;stroke-linejoin:miter;stroke-miterlimit:4;stroke-dasharray:none;stroke-opacity:1" />
        <path
           id="path25184"
           d="M 273.38738,192.35622 C 229.2192,192.35622 193.35613,228.21929 193.35613,272.38747 C 193.35613,250.30339 211.30328,232.38746 233.38738,232.38747 C 255.37744,232.38747 273.23566,250.15168 273.38738,272.10622 C 273.38803,272.20009 273.38738,272.29345 273.38738,272.38747 C 273.5391,294.342 291.39732,312.10622 313.38738,312.10622 C 335.37738,312.10622 353.23556,294.34192 353.38738,272.38747 C 353.38767,272.34572 353.38722,272.30425 353.38738,272.26247 C 353.3873,272.21022 353.38756,272.15845 353.38738,272.10622 C 353.23509,228.06763 317.46147,192.35622 273.38738,192.35622 z "
           style="fill:#000000;fill-opacity:1;fill-rule:evenodd;stroke:none;stroke-width:1px;stroke-linecap:butt;stroke-linejoin:miter;stroke-opacity:1" />
        <path
           transform="matrix(0.302561,0,0,-0.302561,237.3491,391.1566)"
           d="M 20.506098 390.97903 A 33.057243 33.057243 0 1 1  -45.608389,390.97903 A 33.057243 33.057243 0 1 1  20.506098 390.97903 z"
           sodipodi:ry="33.057243"
           sodipodi:rx="33.057243"
           sodipodi:cy="390.97903"
           sodipodi:cx="-12.551146"
           id="path25318"
           style="fill:#000000;fill-opacity:1;fill-rule:evenodd;stroke:none;stroke-width:1px;stroke-linecap:butt;stroke-linejoin:miter;stroke-opacity:1"
           sodipodi:type="arc" />
        <path
           transform="matrix(0.302561,0,0,-0.302561,317.364,391.1566)"
           d="M 20.506098 390.97903 A 33.057243 33.057243 0 1 1  -45.608389,390.97903 A 33.057243 33.057243 0 1 1  20.506098 390.97903 z"
           sodipodi:ry="33.057243"
           sodipodi:rx="33.057243"
           sodipodi:cy="390.97903"
           sodipodi:cx="-12.551146"
           id="path25320"
           style="fill:#ffffff;fill-opacity:1;fill-rule:evenodd;stroke:none;stroke-width:1px;stroke-linecap:butt;stroke-linejoin:miter;stroke-opacity:1"
           sodipodi:type="arc" />
      </g>
    </g>
    <g
       transform="translate(-5.730142e-5,3.040446e-5)"
       id="g34835">
      <g
         id="g34560">
        <path
           transform="matrix(1.509552,1.830835e-2,-1.830835e-2,1.509552,655.2867,149.6801)"
           d="M -97,146.80756 L -186.23907,238.24973 L -314,239.80756 L -405.44217,150.56849 L -407,22.807556 L -317.76093,-68.634616 L -190,-70.192444 L -98.557828,19.046626 L -97,146.80756 z "
           inkscape:randomized="0"
           inkscape:rounded="0"
           inkscape:flatsided="true"
           sodipodi:arg2="0.77320546"
           sodipodi:arg1="0.38050638"
           sodipodi:r2="154.23254"
           sodipodi:r1="166.94011"
           sodipodi:cy="84.807556"
           sodipodi:cx="-252"
           sodipodi:sides="8"
           id="path27591"
           style="fill:none;fill-opacity:1;fill-rule:nonzero;stroke:#000000;stroke-width:5;stroke-linecap:butt;stroke-linejoin:miter;stroke-miterlimit:4;stroke-dasharray:none;stroke-opacity:1"
           sodipodi:type="star" />
      </g>
    </g>
  </g>
</svg>
