<?xml version="1.0" encoding="UTF-8"?> <svg xmlns="http://www.w3.org/2000/svg" id="Laag_1" data-name="Laag 1" viewBox="0 0 250 45.87"><defs><style>.cls-1{fill:#353230;}.cls-2{fill:#fff;}</style></defs><title>Logo_Black_LrgText</title><polyline class="cls-1" points="21.4 0 14.22 15.66 10.86 8.31 0 32.01 21.4 45.87 42.97 32.01 32.12 8.31 28.66 15.85 21.4 0"></polyline><polygon class="cls-1" points="32.12 13.09 39.78 29.83 34.27 28.09 29.76 18.24 32.12 13.09"></polygon><polygon class="cls-1" points="21.4 4.78 32 27.92 10.8 27.92 21.4 4.78"></polygon><polygon class="cls-1" points="10.86 13.09 13.13 18.05 8.53 28.09 3.2 29.81 10.86 13.09"></polygon><polygon class="cls-1" points="3.79 31.92 8.88 30.28 16.73 40.31 3.79 31.92"></polygon><polygon class="cls-1" points="11.36 30.13 31.43 30.13 21.4 42.94 11.36 30.13"></polygon><polygon class="cls-1" points="26.02 40.37 33.92 30.27 39.16 31.93 26.02 40.37"></polygon><polygon class="cls-2" points="32.12 13.09 39.78 29.83 34.27 28.09 29.76 18.24 32.12 13.09"></polygon><polygon class="cls-2" points="21.4 4.78 32 27.92 10.8 27.92 21.4 4.78"></polygon><polygon class="cls-2" points="10.86 13.09 13.13 18.05 8.53 28.09 3.2 29.81 10.86 13.09"></polygon><polygon class="cls-1" points="3.79 31.92 8.88 30.28 16.73 40.31 3.79 31.92"></polygon><polygon class="cls-2" points="11.36 30.13 31.43 30.13 21.4 42.94 11.36 30.13"></polygon><polygon class="cls-1" points="26.02 40.37 33.92 30.27 39.16 31.93 26.02 40.37"></polygon><path class="cls-1" d="M56.77,21.21H64v1H57.84V26h5.52v1H57.84v4.07h6.37v1H56.77Z" transform="translate(-1.8 -1.3)"></path><path class="cls-1" d="M70.72,31.47a3.28,3.28,0,0,1-1.79.6,1.93,1.93,0,0,1-1.47-.57,2.41,2.41,0,0,1-.54-1.72V25H65.76l0-.81h1.18V22.06h1v2.09h2.63V25H68v4.65q0,1.5,1.11,1.5a2.68,2.68,0,0,0,1.35-.43Z" transform="translate(-1.8 -1.3)"></path><path class="cls-1" d="M79.21,24.73A3.16,3.16,0,0,1,80,27v5H79V27.29a2.42,2.42,0,0,0-.64-1.79,2.32,2.32,0,0,0-1.76-.65,2.67,2.67,0,0,0-2.11.89,3.37,3.37,0,0,0-.77,2.31v4h-1V20.55h1v5.29a3.21,3.21,0,0,1,3.22-1.95A3,3,0,0,1,79.21,24.73Z" transform="translate(-1.8 -1.3)"></path><path class="cls-1" d="M88.84,25.09a4.62,4.62,0,0,1,.92,3.22H83a3.18,3.18,0,0,0,1,2.1,3,3,0,0,0,2.11.8,3.85,3.85,0,0,0,1.44-.28,3.38,3.38,0,0,0,1.14-.79l.59.59a4,4,0,0,1-1.42,1,4.64,4.64,0,0,1-1.81.35,4.1,4.1,0,0,1-2.09-.52,3.69,3.69,0,0,1-1.43-1.45,4.56,4.56,0,0,1,0-4.23,3.63,3.63,0,0,1,1.43-1.45,4,4,0,0,1,2-.52A3.52,3.52,0,0,1,88.84,25.09Zm0,2.42a3,3,0,0,0-.85-2,2.72,2.72,0,0,0-2-.75,2.87,2.87,0,0,0-2,.76,3,3,0,0,0-1,2Z" transform="translate(-1.8 -1.3)"></path><path class="cls-1" d="M94.11,24.39a3.36,3.36,0,0,1,1.8-.5v1a2.77,2.77,0,0,0-2.06.75A3.17,3.17,0,0,0,93,27.69V32h-1V23.92h1v1.89A3.15,3.15,0,0,1,94.11,24.39Z" transform="translate(-1.8 -1.3)"></path><path class="cls-1" d="M103.62,25.09a4.61,4.61,0,0,1,.91,3.22H97.77a3.09,3.09,0,0,0,1,2.1,3,3,0,0,0,2.1.8,3.77,3.77,0,0,0,1.44-.28,3.33,3.33,0,0,0,1.15-.79l.59.59a4.15,4.15,0,0,1-1.42,1,4.69,4.69,0,0,1-1.82.35,4.13,4.13,0,0,1-2.09-.52,3.76,3.76,0,0,1-1.43-1.45A4.32,4.32,0,0,1,96.73,28a4.37,4.37,0,0,1,.52-2.11,3.69,3.69,0,0,1,1.43-1.45,4.07,4.07,0,0,1,2.06-.52A3.52,3.52,0,0,1,103.62,25.09Zm0,2.42a3,3,0,0,0-.84-2,2.74,2.74,0,0,0-2-.75,2.89,2.89,0,0,0-2.05.76,3,3,0,0,0-.94,2Z" transform="translate(-1.8 -1.3)"></path><path class="cls-1" d="M113.66,23.92V32h-1V30.09a3.07,3.07,0,0,1-1.2,1.46,3.67,3.67,0,0,1-1.93.51,3,3,0,0,1-2.25-.85,3.19,3.19,0,0,1-.81-2.31v-5h1v4.73a2.44,2.44,0,0,0,.63,1.79,2.29,2.29,0,0,0,1.72.64,2.58,2.58,0,0,0,2.05-.89,3.44,3.44,0,0,0,.74-2.29v-4Z" transform="translate(-1.8 -1.3)"></path><path class="cls-1" d="M129.27,24.72a3.2,3.2,0,0,1,.81,2.32v5H129V27.29a2.51,2.51,0,0,0-.62-1.8,2.31,2.31,0,0,0-1.73-.64,2.6,2.6,0,0,0-2,.9A3.4,3.4,0,0,0,123.9,28v4h-1.05V27.29a2.47,2.47,0,0,0-.63-1.8,2.27,2.27,0,0,0-1.72-.64,2.61,2.61,0,0,0-2,.9,3.35,3.35,0,0,0-.75,2.28v4h-1V23.92h1v1.9a3,3,0,0,1,1.2-1.44,3.8,3.8,0,0,1,1.94-.49,3.14,3.14,0,0,1,1.93.57,2.69,2.69,0,0,1,1,1.61,3.06,3.06,0,0,1,1.2-1.62,3.65,3.65,0,0,1,2-.56A3,3,0,0,1,129.27,24.72Z" transform="translate(-1.8 -1.3)"></path><path class="cls-1" d="M143.65,22.42a4.56,4.56,0,0,0-5.72,1.89,4.44,4.44,0,0,0-.61,2.29,4.37,4.37,0,0,0,.61,2.27,4.66,4.66,0,0,0,1.65,1.65,4.47,4.47,0,0,0,2.3.61,4.63,4.63,0,0,0,1.75-.35,4.86,4.86,0,0,0,1.52-1l.65.7A6.15,6.15,0,0,1,144,31.69a5.39,5.39,0,0,1-2.12.43A5.61,5.61,0,0,1,137,29.37a5.44,5.44,0,0,1,0-5.53,5.67,5.67,0,0,1,2-2,5.6,5.6,0,0,1,2.83-.73,5.75,5.75,0,0,1,2.12.41,5.58,5.58,0,0,1,1.79,1.14l-.63.74A5,5,0,0,0,143.65,22.42Z" transform="translate(-1.8 -1.3)"></path><path class="cls-1" d="M148,20.55h1V32h-1Z" transform="translate(-1.8 -1.3)"></path><path class="cls-1" d="M157.26,32V30.67A3,3,0,0,1,156,31.73a4.32,4.32,0,0,1-1.78.34,3.15,3.15,0,0,1-1.44-.31,2.44,2.44,0,0,1-1-.88,2.32,2.32,0,0,1-.34-1.25,2,2,0,0,1,.81-1.66,3.7,3.7,0,0,1,2.24-.6h2.72v-.62a1.91,1.91,0,0,0-.57-1.48,2.34,2.34,0,0,0-1.67-.53,4.39,4.39,0,0,0-2.62,1l-.46-.71a6.67,6.67,0,0,1,1.56-.84,5,5,0,0,1,1.7-.27,3.27,3.27,0,0,1,2.28.73,2.69,2.69,0,0,1,.82,2V32Zm-1-1.33a2.46,2.46,0,0,0,1-1.41V28.17h-2.62a3,3,0,0,0-1.62.36,1.17,1.17,0,0,0-.56,1.07,1.47,1.47,0,0,0,.53,1.17,2.19,2.19,0,0,0,1.42.44A3.18,3.18,0,0,0,156.23,30.7Z" transform="translate(-1.8 -1.3)"></path><path class="cls-1" d="M164.21,24.9a4.06,4.06,0,0,0-1.13-.16,2.31,2.31,0,0,0-1.25.3,1,1,0,0,0-.47.91,1,1,0,0,0,.26.68,2,2,0,0,0,.63.42,11,11,0,0,0,1.06.37,9.83,9.83,0,0,1,1.36.48,2.55,2.55,0,0,1,.9.7,1.81,1.81,0,0,1,.37,1.2,1.94,1.94,0,0,1-.83,1.68,3.65,3.65,0,0,1-2.09.58,5,5,0,0,1-1.71-.3,3.7,3.7,0,0,1-1.37-.83l.41-.74a4.22,4.22,0,0,0,2.71,1,2.36,2.36,0,0,0,1.34-.34,1.1,1.1,0,0,0,.52-1,1.05,1.05,0,0,0-.26-.73,1.93,1.93,0,0,0-.66-.45c-.26-.11-.63-.24-1.09-.38a12.56,12.56,0,0,1-1.33-.48,2.48,2.48,0,0,1-.87-.67,1.79,1.79,0,0,1-.36-1.16,1.84,1.84,0,0,1,.8-1.61,3.48,3.48,0,0,1,2-.54,4.74,4.74,0,0,1,1.35.19,4.21,4.21,0,0,1,1.16.51l-.41.79A3.85,3.85,0,0,0,164.21,24.9Z" transform="translate(-1.8 -1.3)"></path><path class="cls-1" d="M171.15,24.9a4,4,0,0,0-1.12-.16,2.29,2.29,0,0,0-1.25.3,1,1,0,0,0-.47.91,1,1,0,0,0,.25.68,2,2,0,0,0,.64.42,10.09,10.09,0,0,0,1.06.37,10.33,10.33,0,0,1,1.36.48,2.55,2.55,0,0,1,.9.7,1.87,1.87,0,0,1,.37,1.2,1.92,1.92,0,0,1-.84,1.68,3.63,3.63,0,0,1-2.09.58,5,5,0,0,1-1.7-.3,3.75,3.75,0,0,1-1.38-.83l.42-.74a3.82,3.82,0,0,0,1.25.75,3.91,3.91,0,0,0,1.46.28,2.38,2.38,0,0,0,1.34-.34,1.12,1.12,0,0,0,.52-1,1,1,0,0,0-.27-.73,1.8,1.8,0,0,0-.65-.45c-.27-.11-.63-.24-1.1-.38a13.44,13.44,0,0,1-1.33-.48,2.36,2.36,0,0,1-.86-.67A1.79,1.79,0,0,1,167.3,26a1.84,1.84,0,0,1,.8-1.61,3.46,3.46,0,0,1,2-.54,4.62,4.62,0,0,1,1.34.19,4.08,4.08,0,0,1,1.16.51l-.4.79A3.78,3.78,0,0,0,171.15,24.9Z" transform="translate(-1.8 -1.3)"></path><path class="cls-1" d="M176,21.06a.71.71,0,0,1,.2.52.74.74,0,0,1-.21.53.68.68,0,0,1-.5.22.71.71,0,0,1-.52-.22.74.74,0,0,1-.21-.53.72.72,0,0,1,.21-.52.73.73,0,0,1,.52-.2A.69.69,0,0,1,176,21.06Zm-1,2.86h1V32h-1Z" transform="translate(-1.8 -1.3)"></path><path class="cls-1" d="M182.22,24.8a3.19,3.19,0,0,0-1.57.4,2.87,2.87,0,0,0-1.08,1.13,3.34,3.34,0,0,0-.39,1.64,3.48,3.48,0,0,0,.39,1.66,2.87,2.87,0,0,0,1.08,1.13,3.08,3.08,0,0,0,1.57.4,3.56,3.56,0,0,0,1.44-.28,2.88,2.88,0,0,0,1.11-.8l.59.62a3.71,3.71,0,0,1-1.36,1,4.53,4.53,0,0,1-1.83.36,4.08,4.08,0,0,1-2.07-.52,3.65,3.65,0,0,1-1.43-1.46,4.21,4.21,0,0,1-.52-2.11,4.26,4.26,0,0,1,.52-2.11,3.63,3.63,0,0,1,1.43-1.45,4.08,4.08,0,0,1,2.07-.52,4.63,4.63,0,0,1,1.73.31,3.77,3.77,0,0,1,1.33.86l-.58.7A3.36,3.36,0,0,0,182.22,24.8Z" transform="translate(-1.8 -1.3)"></path><path class="cls-1" d="M196.67,22.33a5.43,5.43,0,0,0-1.49-.22,3.21,3.21,0,0,0-1.78.44,1.36,1.36,0,0,0-.68,1.2,1.61,1.61,0,0,0,.37,1.08,2.67,2.67,0,0,0,.92.66,12.92,12.92,0,0,0,1.48.53,12.16,12.16,0,0,1,1.77.65,3.09,3.09,0,0,1,1.15.92,2.53,2.53,0,0,1,.47,1.59,2.48,2.48,0,0,1-.49,1.53,3,3,0,0,1-1.37,1,5.28,5.28,0,0,1-2,.36,5.85,5.85,0,0,1-2.21-.44,6,6,0,0,1-1.85-1.2l.5-.88a5.32,5.32,0,0,0,1.68,1.12,5,5,0,0,0,1.89.4,3.46,3.46,0,0,0,2-.5,1.58,1.58,0,0,0,.72-1.36,1.64,1.64,0,0,0-.37-1.11,2.45,2.45,0,0,0-.91-.67c-.36-.15-.87-.33-1.52-.54a16.29,16.29,0,0,1-1.76-.64,3,3,0,0,1-1.13-.9,2.44,2.44,0,0,1-.46-1.55,2.32,2.32,0,0,1,.46-1.44,2.92,2.92,0,0,1,1.3-.95,5,5,0,0,1,1.93-.34,6.15,6.15,0,0,1,1.78.27,6.07,6.07,0,0,1,1.57.69l-.47.92A5.59,5.59,0,0,0,196.67,22.33Z" transform="translate(-1.8 -1.3)"></path><path class="cls-1" d="M208.3,23.92V32h-1.05V30.09a3.07,3.07,0,0,1-1.2,1.46,3.66,3.66,0,0,1-1.92.51,3,3,0,0,1-2.26-.85,3.19,3.19,0,0,1-.81-2.31v-5h1.05v4.73a2.44,2.44,0,0,0,.63,1.79,2.29,2.29,0,0,0,1.73.64,2.57,2.57,0,0,0,2-.89,3.44,3.44,0,0,0,.74-2.29v-4Z" transform="translate(-1.8 -1.3)"></path><path class="cls-1" d="M223.91,24.72a3.2,3.2,0,0,1,.81,2.32v5h-1.05V27.29a2.47,2.47,0,0,0-.63-1.8,2.29,2.29,0,0,0-1.72-.64,2.61,2.61,0,0,0-2,.9,3.39,3.39,0,0,0-.73,2.28v4h-1.06V27.29a2.51,2.51,0,0,0-.62-1.8,2.31,2.31,0,0,0-1.73-.64,2.63,2.63,0,0,0-2,.9,3.35,3.35,0,0,0-.74,2.28v4h-1V23.92h1v1.9a2.87,2.87,0,0,1,1.2-1.44,3.77,3.77,0,0,1,1.94-.49,3.12,3.12,0,0,1,1.92.57,2.75,2.75,0,0,1,1,1.61,3,3,0,0,1,1.2-1.62,3.64,3.64,0,0,1,2-.56A3,3,0,0,1,223.91,24.72Z" transform="translate(-1.8 -1.3)"></path><path class="cls-1" d="M240.08,24.72a3.2,3.2,0,0,1,.81,2.32v5h-1V27.29a2.47,2.47,0,0,0-.63-1.8,2.29,2.29,0,0,0-1.73-.64,2.6,2.6,0,0,0-2,.9,3.4,3.4,0,0,0-.74,2.28v4h-1.05V27.29a2.51,2.51,0,0,0-.62-1.8,2.31,2.31,0,0,0-1.73-.64,2.61,2.61,0,0,0-2,.9,3.35,3.35,0,0,0-.74,2.28v4h-1V23.92h1v1.9a2.9,2.9,0,0,1,1.19-1.44,3.83,3.83,0,0,1,1.95-.49,3.12,3.12,0,0,1,1.92.57,2.75,2.75,0,0,1,1,1.61,3,3,0,0,1,1.19-1.62,3.68,3.68,0,0,1,2-.56A3,3,0,0,1,240.08,24.72Z" transform="translate(-1.8 -1.3)"></path><path class="cls-1" d="M244.69,21.06a.72.72,0,0,1,.21.52.74.74,0,0,1-.21.53.7.7,0,0,1-.51.22.73.73,0,0,1-.52-.22.78.78,0,0,1-.2-.53.69.69,0,0,1,.72-.72A.69.69,0,0,1,244.69,21.06Zm-1,2.86h1V32h-1Z" transform="translate(-1.8 -1.3)"></path><path class="cls-1" d="M251.8,31.47a3.34,3.34,0,0,1-1.8.6,1.93,1.93,0,0,1-1.47-.57,2.41,2.41,0,0,1-.54-1.72V25h-1.16l0-.81H248V22.06h1v2.09h2.63V25H249v4.65q0,1.5,1.11,1.5a2.68,2.68,0,0,0,1.35-.43Z" transform="translate(-1.8 -1.3)"></path></svg> 